<?xml version="1.0" encoding="UTF-8"?>
<svg id="Ebene_2" data-name="Ebene 2" xmlns="http://www.w3.org/2000/svg" xmlns:xlink="http://www.w3.org/1999/xlink" viewBox="0 0 446.9 156.45">
  <defs>
    <style>
      .cls-1 {
        fill: #d1d2d1;
      }

      .cls-2 {
        clip-path: url(#clippath);
      }

      .cls-3 {
        fill: none;
      }
    </style>
    <clipPath id="clippath">
      <rect class="cls-3" width="446.9" height="156.45"/>
    </clipPath>
  </defs>
  <g id="Ebene_1-2" data-name="Ebene 1">
    <g class="cls-2">
      <g id="g9">
        <path id="path7" class="cls-1" d="m443.66,48.21c-1.91,13.61-8.76,26.96-20.04,39.37-16.9,18.62-43.75,35.05-78.28,46.8-34.53,11.74-76.73,18.81-124.32,18.81-60.41,0-115.1-9.51-154.55-24.82-19.72-7.64-35.62-16.75-46.51-26.73-5.44-4.99-9.63-10.2-12.45-15.54-2.81-5.34-4.27-10.8-4.27-16.39,0-4.41,1.14-8.73,3.38-12.96,3.9-7.4,11.17-14.52,21.28-20.97,15.16-9.68,36.62-17.84,62.22-23.54,25.6-5.71,55.32-8.98,87.01-8.98,38.6,0,74.05,6.08,99.71,15.85,12.83,4.88,23.2,10.68,30.27,17,3.54,3.16,6.25,6.45,8.06,9.79s2.74,6.73,2.74,10.2c0,2.71-.73,5.48-2.19,8.29-2.54,4.92-7.31,9.93-13.93,14.61-9.93,7.03-23.98,13.31-40.59,17.81s-35.78,7.23-55.99,7.23c-24.59,0-49.4-5.04-67.93-12.6-9.26-3.77-16.95-8.18-22.24-12.8-2.64-2.31-4.68-4.66-6.04-6.99-1.36-2.33-2.03-4.61-2.03-6.84s.57-4.37,1.68-6.34c1.93-3.45,5.57-6.57,10.59-9.24,7.53-4.01,18.07-6.96,29.94-8.87,11.88-1.91,25.09-2.81,38.05-2.81,15.69,0,30.66,2.73,41.58,6.93,5.46,2.09,9.9,4.56,12.88,7.14,1.49,1.29,2.61,2.6,3.34,3.88.73,1.28,1.08,2.51,1.08,3.73,0,1.96-.88,4.2-2.83,6.5-2.91,3.45-8.18,6.93-15.62,9.48-7.43,2.56-17.01,4.23-28.53,4.23h-.88c-15.64,0-25.72-2.6-31.73-5.99-3.01-1.69-5.01-3.57-6.24-5.41-1.24-1.84-1.73-3.63-1.73-5.25h-1.63l1.62.09c.04-.74.24-1.41.61-2.06.63-1.14,1.83-2.26,3.58-3.26,2.61-1.5,6.41-2.66,10.84-3.43,4.44-.77,9.53-1.14,14.79-1.14,6.33,0,12.06,1.01,16.07,2.57,2,.77,3.56,1.69,4.54,2.59.49.45.82.88,1.03,1.27.21.39.29.74.29,1.08,0,.64-.21,1.33-.72,2.07-.76,1.11-2.24,2.28-4.5,3.16s-5.26,1.45-9,1.45c-4.06,0-7.44-.4-9.59-1.21-1.08-.4-1.82-.89-2.24-1.37-.42-.49-.6-.93-.61-1.64h-1.63l1.61.26c.06-.35.14-.61.22-.78.13-.25.21-.32.38-.42.17-.09.51-.2,1.1-.2.68,0,1.65.14,2.89.46,1.24.32,2.75.8,4.53,1.45.84.31,1.78-.12,2.09-.97.3-.85-.13-1.78-.98-2.09-1.84-.67-3.44-1.19-4.84-1.55-1.4-.36-2.6-.55-3.7-.56-.62,0-1.22.07-1.79.23-.85.25-1.65.77-2.18,1.48-.53.71-.81,1.54-.95,2.41l-.02.13v.13c-.01,1.44.53,2.8,1.45,3.81.68.77,1.54,1.35,2.52,1.82,1.46.7,3.2,1.14,5.17,1.43,1.97.29,4.18.41,6.58.41,5.43,0,9.66-1.11,12.66-2.87,1.5-.89,2.68-1.94,3.52-3.14.84-1.2,1.31-2.55,1.3-3.93,0-.92-.25-1.81-.67-2.6-.74-1.4-1.96-2.53-3.5-3.51-2.3-1.46-5.36-2.6-8.94-3.41-3.59-.8-7.7-1.25-12.08-1.25-8.25,0-16.12.87-22.16,2.81-3.02.98-5.59,2.22-7.53,3.86-.97.82-1.78,1.75-2.37,2.81-.59,1.05-.95,2.23-1.02,3.47v.04s0,.05,0,.05c0,2.3.72,4.75,2.29,7.08,2.36,3.5,6.58,6.69,13.15,9.02,6.58,2.33,15.53,3.8,27.53,3.81.16,0,.32,0,.48,0h0c.13,0,.27,0,.41,0,15.78,0,28.17-3.04,36.73-7.43,4.28-2.2,7.6-4.73,9.91-7.45,2.3-2.71,3.6-5.66,3.6-8.61,0-1.86-.55-3.67-1.52-5.35-1.7-2.94-4.61-5.54-8.41-7.88-5.71-3.5-13.48-6.4-22.47-8.46-8.99-2.05-19.2-3.25-29.75-3.25-19.97,0-40.55,2.08-56.3,6.8-7.88,2.37-14.56,5.39-19.39,9.25-2.41,1.94-4.37,4.1-5.72,6.52-1.36,2.41-2.1,5.09-2.1,7.94s.89,5.76,2.48,8.48c2.78,4.75,7.64,9.16,14.02,13.19,9.57,6.04,22.59,11.22,37.34,14.92,14.75,3.7,31.22,5.9,47.65,5.9,31.25,0,60.02-6.41,81.1-15.91,10.54-4.75,19.16-10.27,25.23-16.24,3.03-2.98,5.43-6.08,7.07-9.27s2.55-6.48,2.55-9.79c0-4.06-1.1-8.01-3.14-11.75-3.57-6.56-9.95-12.54-18.5-17.88-12.84-8-30.65-14.59-51.66-19.21C226.89,2.63,202.71,0,177.15,0c-48.64,0-92.68,7.64-124.7,20.05-16.01,6.21-29.03,13.62-38.13,21.96-4.55,4.17-8.12,8.59-10.57,13.22-2.45,4.63-3.75,9.5-3.75,14.48,0,6.16,1.62,12.17,4.64,17.91,5.31,10.05,14.89,19.3,27.87,27.59,19.48,12.43,46.66,22.71,78.95,29.92,32.29,7.2,69.69,11.31,109.56,11.31,63.89,0,118.21-12.63,157.66-32.36,19.72-9.87,35.73-21.52,47.35-34.31,11.61-12.78,18.83-26.72,20.85-41.11.12-.89-.5-1.71-1.39-1.84s-1.71.5-1.84,1.39"/>
      </g>
    </g>
  </g>
</svg>